<svg xmlns="http://www.w3.org/2000/svg" xmlns:xlink="http://www.w3.org/1999/xlink" width="500" zoomAndPan="magnify" viewBox="0 0 375 374.999991" height="500" preserveAspectRatio="xMidYMid meet" version="1.2"><defs><clipPath id="74882a5240"><path d="M 97.839844 166.449219 L 139.839844 166.449219 L 139.839844 208.449219 L 97.839844 208.449219 Z M 97.839844 166.449219 "/></clipPath></defs><g id="2a3405a633"><g clip-rule="nonzero" clip-path="url(#74882a5240)"><path style=" stroke:none;fill-rule:nonzero;fill:#ffffff;fill-opacity:1;" d="M 118.886719 166.449219 C 107.269531 166.449219 97.839844 175.878906 97.839844 187.496094 C 97.839844 199.113281 107.269531 208.542969 118.886719 208.542969 C 130.503906 208.542969 139.933594 199.113281 139.933594 187.496094 C 139.933594 175.878906 130.503906 166.449219 118.886719 166.449219 Z M 118.886719 167.617188 C 129.871094 167.617188 138.761719 176.511719 138.761719 187.496094 C 138.761719 198.480469 129.871094 207.375 118.886719 207.375 C 107.902344 207.375 99.007812 198.480469 99.007812 187.496094 C 99.007812 176.511719 107.902344 167.617188 118.886719 167.617188 Z M 118.886719 167.617188 "/></g><path style="fill:none;stroke-width:2;stroke-linecap:butt;stroke-linejoin:miter;stroke:#ffffff;stroke-opacity:1;stroke-miterlimit:4;" d="M 0.000293778 1.001732 L 48.510714 1.001732 " transform="matrix(0,-0.75,0.75,0,109.123701,205.840064)"/><path style="fill:none;stroke-width:2;stroke-linecap:butt;stroke-linejoin:miter;stroke:#ffffff;stroke-opacity:1;stroke-miterlimit:4;" d="M -0.0000190594 1.001636 L 56.135401 1.001636 " transform="matrix(0,-0.75,0.75,0,118.135492,208.546861)"/><path style="fill:none;stroke-width:2;stroke-linecap:butt;stroke-linejoin:miter;stroke:#ffffff;stroke-opacity:1;stroke-miterlimit:4;" d="M -0.0000180091 1.001073 L 48.510402 1.001073 " transform="matrix(0,-0.75,0.75,0,127.186695,205.687486)"/><path style="fill:none;stroke-width:1;stroke-linecap:butt;stroke-linejoin:miter;stroke:#ffffff;stroke-opacity:1;stroke-miterlimit:4;" d="M -0.00240907 0.500016 L 44.909052 0.500016 " transform="matrix(0.75,0,0,0.75,102.048682,187.124988)"/><g style="fill:#ffffff;fill-opacity:1;"><g transform="translate(147.687345, 194.624987)"><path style="stroke:none" d="M 9.5625 -0.4375 C 9.832031 -0.4375 9.96875 -0.539062 9.96875 -0.75 L 9.96875 -7.09375 C 9.96875 -7.851562 9.71875 -8.472656 9.21875 -8.953125 C 8.71875 -9.429688 8.007812 -9.671875 7.09375 -9.671875 C 6.476562 -9.671875 5.875 -9.601562 5.28125 -9.46875 C 4.6875 -9.332031 4.160156 -9.144531 3.703125 -8.90625 C 3.242188 -8.664062 2.890625 -8.390625 2.640625 -8.078125 L 2.640625 -0.75 C 2.640625 -0.539062 2.773438 -0.4375 3.046875 -0.4375 L 3.046875 0 L 0.40625 0 L 0.40625 -0.4375 C 0.675781 -0.4375 0.8125 -0.539062 0.8125 -0.75 L 0.8125 -14.203125 C 0.8125 -14.503906 0.773438 -14.769531 0.703125 -15 C 0.640625 -15.238281 0.539062 -15.398438 0.40625 -15.484375 L 0.359375 -15.734375 C 0.429688 -15.753906 0.503906 -15.773438 0.578125 -15.796875 C 0.648438 -15.816406 0.722656 -15.835938 0.796875 -15.859375 L 0.796875 -15.875 L 0.859375 -15.875 C 1.160156 -15.957031 1.453125 -16.035156 1.734375 -16.109375 L 2.640625 -16.109375 L 2.640625 -8.265625 C 3.046875 -8.796875 3.546875 -9.257812 4.140625 -9.65625 C 4.742188 -10.0625 5.394531 -10.378906 6.09375 -10.609375 C 6.800781 -10.835938 7.484375 -10.953125 8.140625 -10.953125 C 9.304688 -10.953125 10.207031 -10.585938 10.84375 -9.859375 C 11.476562 -9.128906 11.796875 -8.207031 11.796875 -7.09375 L 11.796875 -0.75 C 11.796875 -0.539062 11.929688 -0.4375 12.203125 -0.4375 L 12.203125 0 L 9.5625 0 Z M 9.5625 -0.4375 "/></g></g><g style="fill:#ffffff;fill-opacity:1;"><g transform="translate(160.532719, 194.624987)"><path style="stroke:none" d="M 8.65625 -1.953125 L 8.65625 -5.625 C 7.125 -5.351562 5.925781 -5.082031 5.0625 -4.8125 C 4.207031 -4.539062 3.609375 -4.203125 3.265625 -3.796875 C 2.921875 -3.390625 2.75 -2.828125 2.75 -2.109375 C 2.75 -1.722656 2.957031 -1.40625 3.375 -1.15625 C 3.800781 -0.90625 4.335938 -0.78125 4.984375 -0.78125 C 5.597656 -0.78125 6.226562 -0.875 6.875 -1.0625 C 7.519531 -1.257812 8.113281 -1.554688 8.65625 -1.953125 Z M 12.984375 -2.28125 L 13.15625 -2.21875 L 13.109375 -2.234375 C 12.992188 -1.554688 12.726562 -1 12.3125 -0.5625 C 11.894531 -0.125 11.421875 0.09375 10.890625 0.09375 C 10.316406 0.09375 9.828125 -0.0820312 9.421875 -0.4375 C 9.015625 -0.800781 8.773438 -1.269531 8.703125 -1.84375 C 7.816406 -1.144531 6.972656 -0.628906 6.171875 -0.296875 C 5.367188 0.0234375 4.664062 0.1875 4.0625 0.1875 C 3.15625 0.1875 2.410156 -0.00390625 1.828125 -0.390625 C 1.253906 -0.785156 0.96875 -1.289062 0.96875 -1.90625 C 0.96875 -2.4375 1.085938 -2.882812 1.328125 -3.25 C 1.578125 -3.613281 1.988281 -3.925781 2.5625 -4.1875 C 3.144531 -4.457031 3.9375 -4.710938 4.9375 -4.953125 C 5.945312 -5.191406 7.203125 -5.445312 8.703125 -5.71875 L 8.703125 -8.296875 C 8.703125 -9.140625 8.5 -9.769531 8.09375 -10.1875 C 7.6875 -10.601562 7.164062 -10.8125 6.53125 -10.8125 C 5.84375 -10.8125 5.226562 -10.6875 4.6875 -10.4375 C 4.15625 -10.1875 3.738281 -9.890625 3.4375 -9.546875 C 3.132812 -9.210938 2.984375 -8.914062 2.984375 -8.65625 C 2.984375 -8.46875 3.054688 -8.253906 3.203125 -8.015625 C 3.347656 -7.773438 3.421875 -7.5625 3.421875 -7.375 C 3.421875 -7.1875 3.328125 -6.984375 3.140625 -6.765625 C 2.960938 -6.554688 2.734375 -6.453125 2.453125 -6.453125 C 2.148438 -6.453125 1.894531 -6.570312 1.6875 -6.8125 C 1.488281 -7.050781 1.390625 -7.359375 1.390625 -7.734375 C 1.390625 -8.023438 1.519531 -8.351562 1.78125 -8.71875 C 2.050781 -9.082031 2.421875 -9.4375 2.890625 -9.78125 C 3.367188 -10.125 3.929688 -10.40625 4.578125 -10.625 C 5.222656 -10.84375 5.929688 -10.953125 6.703125 -10.953125 C 7.804688 -10.953125 8.71875 -10.671875 9.4375 -10.109375 C 10.164062 -9.554688 10.53125 -8.726562 10.53125 -7.625 L 10.53125 -2.1875 C 10.53125 -1.90625 10.640625 -1.671875 10.859375 -1.484375 C 11.078125 -1.296875 11.351562 -1.203125 11.6875 -1.203125 C 12.019531 -1.203125 12.300781 -1.300781 12.53125 -1.5 C 12.769531 -1.707031 12.921875 -1.96875 12.984375 -2.28125 Z M 12.984375 -2.28125 "/></g></g><g style="fill:#ffffff;fill-opacity:1;"><g transform="translate(173.464016, 194.624987)"><path style="stroke:none" d="M 12.671875 -1.734375 C 12.671875 -1.160156 12.859375 -0.875 13.234375 -0.875 C 13.273438 -0.875 13.316406 -0.878906 13.359375 -0.890625 C 13.398438 -0.898438 13.453125 -0.910156 13.515625 -0.921875 L 13.515625 -0.5 C 13.398438 -0.46875 13.269531 -0.429688 13.125 -0.390625 C 12.976562 -0.347656 12.828125 -0.304688 12.671875 -0.265625 L 12.671875 -0.234375 L 12.59375 -0.234375 C 12.445312 -0.203125 12.296875 -0.171875 12.140625 -0.140625 C 11.992188 -0.117188 11.863281 -0.078125 11.75 -0.015625 L 10.828125 -0.015625 L 10.828125 -1.546875 C 10.429688 -1.054688 9.835938 -0.65625 9.046875 -0.34375 C 8.253906 -0.0390625 7.4375 0.109375 6.59375 0.109375 C 5.507812 0.109375 4.539062 -0.125 3.6875 -0.59375 C 2.832031 -1.070312 2.160156 -1.722656 1.671875 -2.546875 C 1.191406 -3.378906 0.953125 -4.328125 0.953125 -5.390625 C 0.953125 -6.460938 1.195312 -7.414062 1.6875 -8.25 C 2.175781 -9.09375 2.890625 -9.753906 3.828125 -10.234375 C 4.773438 -10.710938 5.921875 -10.953125 7.265625 -10.953125 C 7.992188 -10.953125 8.679688 -10.769531 9.328125 -10.40625 C 9.972656 -10.039062 10.472656 -9.585938 10.828125 -9.046875 L 10.828125 -14.203125 C 10.828125 -14.503906 10.789062 -14.769531 10.71875 -15 C 10.644531 -15.238281 10.546875 -15.398438 10.421875 -15.484375 L 10.421875 -15.75 C 10.492188 -15.78125 10.566406 -15.804688 10.640625 -15.828125 C 10.710938 -15.847656 10.78125 -15.863281 10.84375 -15.875 L 10.84375 -15.90625 L 11.78125 -16.140625 L 12.671875 -16.140625 Z M 7.484375 -10.421875 C 6.492188 -10.421875 5.648438 -10.222656 4.953125 -9.828125 C 4.253906 -9.429688 3.722656 -8.894531 3.359375 -8.21875 C 2.992188 -7.539062 2.8125 -6.765625 2.8125 -5.890625 C 2.8125 -4.867188 3.007812 -3.960938 3.40625 -3.171875 C 3.800781 -2.390625 4.335938 -1.769531 5.015625 -1.3125 C 5.691406 -0.863281 6.46875 -0.640625 7.34375 -0.640625 C 8.09375 -0.640625 8.789062 -0.738281 9.4375 -0.9375 C 10.082031 -1.144531 10.546875 -1.40625 10.828125 -1.71875 L 10.828125 -8.0625 C 10.703125 -8.476562 10.46875 -8.863281 10.125 -9.21875 C 9.789062 -9.570312 9.394531 -9.859375 8.9375 -10.078125 C 8.476562 -10.304688 7.992188 -10.421875 7.484375 -10.421875 Z M 7.484375 -10.421875 "/></g></g><g style="fill:#ffffff;fill-opacity:1;"><g transform="translate(187.297496, 194.624987)"><path style="stroke:none" d="M 3.078125 -7.3125 C 2.960938 -6.800781 2.90625 -6.269531 2.90625 -5.71875 C 2.90625 -4.664062 3.097656 -3.726562 3.484375 -2.90625 C 3.878906 -2.082031 4.421875 -1.4375 5.109375 -0.96875 C 5.796875 -0.507812 6.578125 -0.28125 7.453125 -0.28125 C 8.367188 -0.28125 9.21875 -0.390625 10 -0.609375 C 10.789062 -0.835938 11.460938 -1.148438 12.015625 -1.546875 C 12.566406 -1.953125 12.9375 -2.40625 13.125 -2.90625 L 13.1875 -2.875 C 12.976562 -2.28125 12.582031 -1.75 12 -1.28125 C 11.414062 -0.8125 10.71875 -0.441406 9.90625 -0.171875 C 9.09375 0.0859375 8.21875 0.21875 7.28125 0.21875 C 6.0625 0.21875 4.972656 -0.00390625 4.015625 -0.453125 C 3.066406 -0.898438 2.320312 -1.507812 1.78125 -2.28125 C 1.238281 -3.0625 0.96875 -3.957031 0.96875 -4.96875 C 0.96875 -6.351562 1.265625 -7.484375 1.859375 -8.359375 C 2.460938 -9.242188 3.285156 -9.894531 4.328125 -10.3125 C 5.378906 -10.738281 6.570312 -10.953125 7.90625 -10.953125 C 8.882812 -10.953125 9.773438 -10.820312 10.578125 -10.5625 C 11.378906 -10.3125 12.039062 -9.914062 12.5625 -9.375 C 13.09375 -8.84375 13.429688 -8.15625 13.578125 -7.3125 Z M 7.890625 -10.84375 C 6.703125 -10.84375 5.675781 -10.566406 4.8125 -10.015625 C 3.957031 -9.472656 3.382812 -8.601562 3.09375 -7.40625 L 11.53125 -7.4375 C 11.300781 -8.625 10.851562 -9.488281 10.1875 -10.03125 C 9.53125 -10.570312 8.765625 -10.84375 7.890625 -10.84375 Z M 7.890625 -10.84375 "/></g></g><g style="fill:#ffffff;fill-opacity:1;"><g transform="translate(201.517626, 194.624987)"><path style="stroke:none" d="M 3.078125 -7.3125 C 2.960938 -6.800781 2.90625 -6.269531 2.90625 -5.71875 C 2.90625 -4.664062 3.097656 -3.726562 3.484375 -2.90625 C 3.878906 -2.082031 4.421875 -1.4375 5.109375 -0.96875 C 5.796875 -0.507812 6.578125 -0.28125 7.453125 -0.28125 C 8.367188 -0.28125 9.21875 -0.390625 10 -0.609375 C 10.789062 -0.835938 11.460938 -1.148438 12.015625 -1.546875 C 12.566406 -1.953125 12.9375 -2.40625 13.125 -2.90625 L 13.1875 -2.875 C 12.976562 -2.28125 12.582031 -1.75 12 -1.28125 C 11.414062 -0.8125 10.71875 -0.441406 9.90625 -0.171875 C 9.09375 0.0859375 8.21875 0.21875 7.28125 0.21875 C 6.0625 0.21875 4.972656 -0.00390625 4.015625 -0.453125 C 3.066406 -0.898438 2.320312 -1.507812 1.78125 -2.28125 C 1.238281 -3.0625 0.96875 -3.957031 0.96875 -4.96875 C 0.96875 -6.351562 1.265625 -7.484375 1.859375 -8.359375 C 2.460938 -9.242188 3.285156 -9.894531 4.328125 -10.3125 C 5.378906 -10.738281 6.570312 -10.953125 7.90625 -10.953125 C 8.882812 -10.953125 9.773438 -10.820312 10.578125 -10.5625 C 11.378906 -10.3125 12.039062 -9.914062 12.5625 -9.375 C 13.09375 -8.84375 13.429688 -8.15625 13.578125 -7.3125 Z M 7.890625 -10.84375 C 6.703125 -10.84375 5.675781 -10.566406 4.8125 -10.015625 C 3.957031 -9.472656 3.382812 -8.601562 3.09375 -7.40625 L 11.53125 -7.4375 C 11.300781 -8.625 10.851562 -9.488281 10.1875 -10.03125 C 9.53125 -10.570312 8.765625 -10.84375 7.890625 -10.84375 Z M 7.890625 -10.84375 "/></g></g><g style="fill:#ffffff;fill-opacity:1;"><g transform="translate(215.737756, 194.624987)"><path style="stroke:none" d="M 12.671875 -1.734375 C 12.671875 -1.160156 12.859375 -0.875 13.234375 -0.875 C 13.273438 -0.875 13.316406 -0.878906 13.359375 -0.890625 C 13.398438 -0.898438 13.453125 -0.910156 13.515625 -0.921875 L 13.515625 -0.5 C 13.398438 -0.46875 13.269531 -0.429688 13.125 -0.390625 C 12.976562 -0.347656 12.828125 -0.304688 12.671875 -0.265625 L 12.671875 -0.234375 L 12.59375 -0.234375 C 12.445312 -0.203125 12.296875 -0.171875 12.140625 -0.140625 C 11.992188 -0.117188 11.863281 -0.078125 11.75 -0.015625 L 10.828125 -0.015625 L 10.828125 -1.546875 C 10.429688 -1.054688 9.835938 -0.65625 9.046875 -0.34375 C 8.253906 -0.0390625 7.4375 0.109375 6.59375 0.109375 C 5.507812 0.109375 4.539062 -0.125 3.6875 -0.59375 C 2.832031 -1.070312 2.160156 -1.722656 1.671875 -2.546875 C 1.191406 -3.378906 0.953125 -4.328125 0.953125 -5.390625 C 0.953125 -6.460938 1.195312 -7.414062 1.6875 -8.25 C 2.175781 -9.09375 2.890625 -9.753906 3.828125 -10.234375 C 4.773438 -10.710938 5.921875 -10.953125 7.265625 -10.953125 C 7.992188 -10.953125 8.679688 -10.769531 9.328125 -10.40625 C 9.972656 -10.039062 10.472656 -9.585938 10.828125 -9.046875 L 10.828125 -14.203125 C 10.828125 -14.503906 10.789062 -14.769531 10.71875 -15 C 10.644531 -15.238281 10.546875 -15.398438 10.421875 -15.484375 L 10.421875 -15.75 C 10.492188 -15.78125 10.566406 -15.804688 10.640625 -15.828125 C 10.710938 -15.847656 10.78125 -15.863281 10.84375 -15.875 L 10.84375 -15.90625 L 11.78125 -16.140625 L 12.671875 -16.140625 Z M 7.484375 -10.421875 C 6.492188 -10.421875 5.648438 -10.222656 4.953125 -9.828125 C 4.253906 -9.429688 3.722656 -8.894531 3.359375 -8.21875 C 2.992188 -7.539062 2.8125 -6.765625 2.8125 -5.890625 C 2.8125 -4.867188 3.007812 -3.960938 3.40625 -3.171875 C 3.800781 -2.390625 4.335938 -1.769531 5.015625 -1.3125 C 5.691406 -0.863281 6.46875 -0.640625 7.34375 -0.640625 C 8.09375 -0.640625 8.789062 -0.738281 9.4375 -0.9375 C 10.082031 -1.144531 10.546875 -1.40625 10.828125 -1.71875 L 10.828125 -8.0625 C 10.703125 -8.476562 10.46875 -8.863281 10.125 -9.21875 C 9.789062 -9.570312 9.394531 -9.859375 8.9375 -10.078125 C 8.476562 -10.304688 7.992188 -10.421875 7.484375 -10.421875 Z M 7.484375 -10.421875 "/></g></g><g style="fill:#ffffff;fill-opacity:1;"><g transform="translate(229.571236, 194.624987)"><path style="stroke:none" d="M 2.6875 -2.46875 C 3.0625 -2.46875 3.367188 -2.34375 3.609375 -2.09375 C 3.847656 -1.851562 3.96875 -1.550781 3.96875 -1.1875 C 3.96875 -0.8125 3.847656 -0.5 3.609375 -0.25 C 3.367188 -0.0078125 3.0625 0.109375 2.6875 0.109375 C 2.3125 0.109375 2 -0.0078125 1.75 -0.25 C 1.507812 -0.5 1.390625 -0.8125 1.390625 -1.1875 C 1.390625 -1.550781 1.507812 -1.851562 1.75 -2.09375 C 2 -2.34375 2.3125 -2.46875 2.6875 -2.46875 Z M 2.6875 -2.46875 "/></g></g><g style="fill:#ffffff;fill-opacity:1;"><g transform="translate(233.759945, 194.624987)"><path style="stroke:none" d="M 12.671875 -1.734375 C 12.671875 -1.160156 12.859375 -0.875 13.234375 -0.875 C 13.273438 -0.875 13.316406 -0.878906 13.359375 -0.890625 C 13.398438 -0.898438 13.453125 -0.910156 13.515625 -0.921875 L 13.515625 -0.5 C 13.398438 -0.46875 13.269531 -0.429688 13.125 -0.390625 C 12.976562 -0.347656 12.828125 -0.304688 12.671875 -0.265625 L 12.671875 -0.234375 L 12.59375 -0.234375 C 12.445312 -0.203125 12.296875 -0.171875 12.140625 -0.140625 C 11.992188 -0.117188 11.863281 -0.078125 11.75 -0.015625 L 10.828125 -0.015625 L 10.828125 -1.546875 C 10.429688 -1.054688 9.835938 -0.65625 9.046875 -0.34375 C 8.253906 -0.0390625 7.4375 0.109375 6.59375 0.109375 C 5.507812 0.109375 4.539062 -0.125 3.6875 -0.59375 C 2.832031 -1.070312 2.160156 -1.722656 1.671875 -2.546875 C 1.191406 -3.378906 0.953125 -4.328125 0.953125 -5.390625 C 0.953125 -6.460938 1.195312 -7.414062 1.6875 -8.25 C 2.175781 -9.09375 2.890625 -9.753906 3.828125 -10.234375 C 4.773438 -10.710938 5.921875 -10.953125 7.265625 -10.953125 C 7.992188 -10.953125 8.679688 -10.769531 9.328125 -10.40625 C 9.972656 -10.039062 10.472656 -9.585938 10.828125 -9.046875 L 10.828125 -14.203125 C 10.828125 -14.503906 10.789062 -14.769531 10.71875 -15 C 10.644531 -15.238281 10.546875 -15.398438 10.421875 -15.484375 L 10.421875 -15.75 C 10.492188 -15.78125 10.566406 -15.804688 10.640625 -15.828125 C 10.710938 -15.847656 10.78125 -15.863281 10.84375 -15.875 L 10.84375 -15.90625 L 11.78125 -16.140625 L 12.671875 -16.140625 Z M 7.484375 -10.421875 C 6.492188 -10.421875 5.648438 -10.222656 4.953125 -9.828125 C 4.253906 -9.429688 3.722656 -8.894531 3.359375 -8.21875 C 2.992188 -7.539062 2.8125 -6.765625 2.8125 -5.890625 C 2.8125 -4.867188 3.007812 -3.960938 3.40625 -3.171875 C 3.800781 -2.390625 4.335938 -1.769531 5.015625 -1.3125 C 5.691406 -0.863281 6.46875 -0.640625 7.34375 -0.640625 C 8.09375 -0.640625 8.789062 -0.738281 9.4375 -0.9375 C 10.082031 -1.144531 10.546875 -1.40625 10.828125 -1.71875 L 10.828125 -8.0625 C 10.703125 -8.476562 10.46875 -8.863281 10.125 -9.21875 C 9.789062 -9.570312 9.394531 -9.859375 8.9375 -10.078125 C 8.476562 -10.304688 7.992188 -10.421875 7.484375 -10.421875 Z M 7.484375 -10.421875 "/></g></g><g style="fill:#ffffff;fill-opacity:1;"><g transform="translate(247.593425, 194.624987)"><path style="stroke:none" d="M 3.078125 -7.3125 C 2.960938 -6.800781 2.90625 -6.269531 2.90625 -5.71875 C 2.90625 -4.664062 3.097656 -3.726562 3.484375 -2.90625 C 3.878906 -2.082031 4.421875 -1.4375 5.109375 -0.96875 C 5.796875 -0.507812 6.578125 -0.28125 7.453125 -0.28125 C 8.367188 -0.28125 9.21875 -0.390625 10 -0.609375 C 10.789062 -0.835938 11.460938 -1.148438 12.015625 -1.546875 C 12.566406 -1.953125 12.9375 -2.40625 13.125 -2.90625 L 13.1875 -2.875 C 12.976562 -2.28125 12.582031 -1.75 12 -1.28125 C 11.414062 -0.8125 10.71875 -0.441406 9.90625 -0.171875 C 9.09375 0.0859375 8.21875 0.21875 7.28125 0.21875 C 6.0625 0.21875 4.972656 -0.00390625 4.015625 -0.453125 C 3.066406 -0.898438 2.320312 -1.507812 1.78125 -2.28125 C 1.238281 -3.0625 0.96875 -3.957031 0.96875 -4.96875 C 0.96875 -6.351562 1.265625 -7.484375 1.859375 -8.359375 C 2.460938 -9.242188 3.285156 -9.894531 4.328125 -10.3125 C 5.378906 -10.738281 6.570312 -10.953125 7.90625 -10.953125 C 8.882812 -10.953125 9.773438 -10.820312 10.578125 -10.5625 C 11.378906 -10.3125 12.039062 -9.914062 12.5625 -9.375 C 13.09375 -8.84375 13.429688 -8.15625 13.578125 -7.3125 Z M 7.890625 -10.84375 C 6.703125 -10.84375 5.675781 -10.566406 4.8125 -10.015625 C 3.957031 -9.472656 3.382812 -8.601562 3.09375 -7.40625 L 11.53125 -7.4375 C 11.300781 -8.625 10.851562 -9.488281 10.1875 -10.03125 C 9.53125 -10.570312 8.765625 -10.84375 7.890625 -10.84375 Z M 7.890625 -10.84375 "/></g></g><g style="fill:#ffffff;fill-opacity:1;"><g transform="translate(261.813555, 194.624987)"><path style="stroke:none" d="M 5.5 0.1875 L 1.25 -9.15625 C 1.070312 -9.53125 0.90625 -9.816406 0.75 -10.015625 C 0.59375 -10.222656 0.441406 -10.328125 0.296875 -10.328125 L 0.296875 -10.765625 L 2.921875 -10.765625 L 2.921875 -10.328125 C 2.796875 -10.328125 2.859375 -10.03125 3.109375 -9.4375 L 6.515625 -1.953125 L 9.984375 -9.375 C 10.117188 -9.65625 10.207031 -9.878906 10.25 -10.046875 C 10.300781 -10.222656 10.296875 -10.3125 10.234375 -10.3125 L 10.234375 -10.75 L 11.671875 -10.75 L 11.671875 -10.328125 C 11.523438 -10.328125 11.367188 -10.222656 11.203125 -10.015625 C 11.035156 -9.816406 10.859375 -9.53125 10.671875 -9.15625 L 6.03125 0.1875 Z M 5.5 0.1875 "/></g></g></g></svg>